{
  "accessors": [
    {
      "bufferView": 2,
      "componentType": 5126,
      "count": 7804,
      "max": [
        2.4873805046081543,
        1.0837560892105103,
        2.5133264064788818
      ],
      "min": [
        -2.5188987255096436,
        -1.2408089637756348,
        -2.5124337673187256
      ],
      "type": "VEC3"
    },
    {
      "bufferView": 2,
      "byteOffset": 93648,
      "componentType": 5126,
      "count": 7804,
      "max": [
        0.99999672174453735,
        1,
        1
      ],
      "min": [
        -1,
        -0.99999988079071045,
        -1
      ],
      "type": "VEC3"
    },
    {
      "bufferView": 3,
      "componentType": 5126,
      "count": 7804,
      "max": [
        1,
        0.90190315246582031,
        0.99987167119979858,
        1
      ],
      "min": [
        -1,
        -0.90056335926055908,
        -0.99995678663253784,
        -1
      ],
      "type": "VEC4"
    },
    {
      "bufferView": 1,
      "componentType": 5126,
      "count": 7804,
      "max": [
        1,
        0.99848121404647827
      ],
      "min": [
        0,
        0
      ],
      "type": "VEC2"
    },
    {
      "bufferView": 0,
      "componentType": 5125,
      "count": 26154,
      "max": [
        7803
      ],
      "min": [
        0
      ],
      "type": "SCALAR"
    },
    {
      "bufferView": 2,
      "byteOffset": 187296,
      "componentType": 5126,
      "count": 72,
      "max": [
        0.5,
        0.50000005960464478,
        0.5
      ],
      "min": [
        -0.5,
        -0.50000005960464478,
        -0.5
      ],
      "type": "VEC3"
    },
    {
      "bufferView": 2,
      "byteOffset": 188160,
      "componentType": 5126,
      "count": 72,
      "max": [
        1,
        1,
        1
      ],
      "min": [
        -1,
        -1,
        -1
      ],
      "type": "VEC3"
    },
    {
      "bufferView": 3,
      "byteOffset": 124864,
      "componentType": 5126,
      "count": 72,
      "max": [
        1,
        0,
        1,
        1
      ],
      "min": [
        0,
        0,
        -1,
        -1
      ],
      "type": "VEC4"
    },
    {
      "bufferView": 1,
      "byteOffset": 62432,
      "componentType": 5126,
      "count": 72,
      "max": [
        0.66182589530944824,
        0.89128625392913818
      ],
      "min": [
        0.29625594615936279,
        0.40385967493057251
      ],
      "type": "VEC2"
    },
    {
      "bufferView": 0,
      "byteOffset": 104616,
      "componentType": 5125,
      "count": 120,
      "max": [
        71
      ],
      "min": [
        0
      ],
      "type": "SCALAR"
    }
  ],
  "asset": {
    "extras": {
      "author": "BJoseph45 (https://sketchfab.com/BJoseph45)",
      "license": "CC-BY-4.0 (http://creativecommons.org/licenses/by/4.0/)",
      "source": "https://sketchfab.com/3d-models/wizard-hat-d0fb7e10499b414abdb85f82c921bded",
      "title": "Wizard Hat"
    },
    "generator": "Sketchfab-6.66.0",
    "version": "2.0"
  },
  "bufferViews": [
    {
      "buffer": 0,
      "byteLength": 105096,
      "byteOffset": 0,
      "name": "floatBufferViews",
      "target": 34963
    },
    {
      "buffer": 0,
      "byteLength": 63008,
      "byteOffset": 105096,
      "byteStride": 8,
      "name": "floatBufferViews",
      "target": 34962
    },
    {
      "buffer": 0,
      "byteLength": 189024,
      "byteOffset": 168104,
      "byteStride": 12,
      "name": "floatBufferViews",
      "target": 34962
    },
    {
      "buffer": 0,
      "byteLength": 126016,
      "byteOffset": 357128,
      "byteStride": 16,
      "name": "floatBufferViews",
      "target": 34962
    }
  ],
  "buffers": [
    {
      "byteLength": 483144,
      "uri": "scene.bin"
    }
  ],
  "images": [
    {
      "uri": "textures/phong1_baseColor.png"
    }
  ],
  "materials": [
    {
      "doubleSided": true,
      "emissiveFactor": [
        0,
        0,
        0
      ],
      "name": "phong1",
      "pbrMetallicRoughness": {
        "baseColorFactor": [
          1,
          1,
          1,
          1
        ],
        "baseColorTexture": {
          "index": 0,
          "texCoord": 0
        },
        "metallicFactor": 0,
        "roughnessFactor": 1
      }
    }
  ],
  "meshes": [
    {
      "name": "pCone1_phong1_0",
      "primitives": [
        {
          "attributes": {
            "NORMAL": 1,
            "POSITION": 0,
            "TANGENT": 2,
            "TEXCOORD_0": 3
          },
          "indices": 4,
          "material": 0,
          "mode": 4
        }
      ]
    },
    {
      "name": "pCube1_phong1_0",
      "primitives": [
        {
          "attributes": {
            "NORMAL": 6,
            "POSITION": 5,
            "TANGENT": 7,
            "TEXCOORD_0": 8
          },
          "indices": 9,
          "material": 0,
          "mode": 4
        }
      ]
    }
  ],
  "nodes": [
    {
      "children": [
        1
      ],
      "name": "RootNode (gltf orientation matrix)",
      "rotation": [
        -0.70710678118654746,
        -0,
        -0,
        0.70710678118654757
      ]
    },
    {
      "children": [
        2
      ],
      "name": "RootNode (model correction matrix)"
    },
    {
      "children": [
        3
      ],
      "matrix": [
        1,
        0,
        0,
        0,
        0,
        0,
        1,
        0,
        0,
        -1,
        0,
        0,
        0,
        0,
        0,
        1
      ],
      "name": "c064d3a2b863432c81cfd7ee3d6bfba2.fbx"
    },
    {
      "children": [
        4,
        6,
        8
      ],
      "name": "RootNode"
    },
    {
      "children": [
        5
      ],
      "matrix": [
        1,
        0,
        0,
        0,
        0,
        2.0333333015441895,
        0,
        0,
        0,
        0,
        1,
        0,
        0,
        2.0395231246948242,
        0,
        1
      ],
      "name": "pCone1"
    },
    {
      "mesh": 0,
      "name": "pCone1_phong1_0"
    },
    {
      "children": [
        7
      ],
      "matrix": [
        2.2204460492503131e-16,
        0,
        1,
        0,
        0,
        1,
        0,
        0,
        -1,
        0,
        2.2204460492503131e-16,
        0,
        0,
        0,
        -1000.0999755859375,
        1
      ],
      "name": "back"
    },
    {
      "name": ""
    },
    {
      "children": [
        9
      ],
      "matrix": [
        0.26583967859732144,
        0.0058340470526381891,
        0.00037371685716731614,
        0,
        -0.00022649759511207462,
        0.0090201298386734883,
        0.020304639307549392,
        0,
        0.0051796327676783167,
        -0.24293699917325345,
        0.10798007373175642,
        0,
        0,
        0.28289374709129333,
        0.96366149187088013,
        1
      ],
      "name": "pCube1"
    },
    {
      "mesh": 1,
      "name": "pCube1_phong1_0"
    }
  ],
  "samplers": [
    {
      "magFilter": 9729,
      "minFilter": 9987,
      "wrapS": 10497,
      "wrapT": 10497
    }
  ],
  "scene": 0,
  "scenes": [
    {
      "name": "OSG_Scene",
      "nodes": [
        0
      ]
    }
  ],
  "textures": [
    {
      "sampler": 0,
      "source": 0
    }
  ]
}

