{
  "accessors": [
    {
      "bufferView": 2,
      "componentType": 5126,
      "count": 3452,
      "max": [
        2.1246616840362549,
        2.1246616840362549,
        1.1912046670913696
      ],
      "min": [
        -2.1246621608734131,
        -2.1246621608734131,
        -0.99826490879058838
      ],
      "type": "VEC3"
    },
    {
      "bufferView": 2,
      "byteOffset": 41424,
      "componentType": 5126,
      "count": 3452,
      "max": [
        0.99851983785629272,
        0.99594604969024658,
        0.99999749660491943
      ],
      "min": [
        -0.99991154670715332,
        -0.99880695343017578,
        -0.9998161792755127
      ],
      "type": "VEC3"
    },
    {
      "bufferView": 3,
      "componentType": 5126,
      "count": 3452,
      "max": [
        0.9999229907989502,
        0.99982953071594238,
        0.99000078439712524,
        1
      ],
      "min": [
        -0.99993342161178589,
        -0.99583309888839722,
        -0.99970227479934692,
        -1
      ],
      "type": "VEC4"
    },
    {
      "bufferView": 3,
      "byteOffset": 55232,
      "componentType": 5126,
      "count": 3452,
      "max": [
        1,
        0.90196079015731812,
        0.25490197539329529,
        1
      ],
      "min": [
        0,
        0.12941177189350128,
        0,
        1
      ],
      "type": "VEC4"
    },
    {
      "bufferView": 1,
      "componentType": 5126,
      "count": 3452,
      "max": [
        0.99086475372314453,
        0.99650931358337402
      ],
      "min": [
        4.9382448196411133e-05,
        5.2601099014282227e-05
      ],
      "type": "VEC2"
    },
    {
      "bufferView": 0,
      "componentType": 5125,
      "count": 16425,
      "max": [
        3451
      ],
      "min": [
        0
      ],
      "type": "SCALAR"
    }
  ],
  "asset": {
    "extras": {
      "author": "aosome23 (https://sketchfab.com/aosome23)",
      "license": "CC-BY-4.0 (http://creativecommons.org/licenses/by/4.0/)",
      "source": "https://sketchfab.com/models/075d5afd521b46dd83bea37ad11f1b4f",
      "title": "Megumin's Hat"
    },
    "generator": "Sketchfab-3.19.6",
    "version": "2.0"
  },
  "bufferViews": [
    {
      "buffer": 0,
      "byteLength": 65700,
      "byteOffset": 0,
      "name": "floatBufferViews",
      "target": 34963
    },
    {
      "buffer": 0,
      "byteLength": 27616,
      "byteOffset": 65700,
      "byteStride": 8,
      "name": "floatBufferViews",
      "target": 34962
    },
    {
      "buffer": 0,
      "byteLength": 82848,
      "byteOffset": 93316,
      "byteStride": 12,
      "name": "floatBufferViews",
      "target": 34962
    },
    {
      "buffer": 0,
      "byteLength": 110464,
      "byteOffset": 176164,
      "byteStride": 16,
      "name": "floatBufferViews",
      "target": 34962
    }
  ],
  "buffers": [
    {
      "byteLength": 286628,
      "uri": "scene.bin"
    }
  ],
  "images": [
    {
      "uri": "textures/MeguminHatMat_metallicRoughness.png"
    },
    {
      "uri": "textures/MeguminHatMat_baseColor.png"
    }
  ],
  "materials": [
    {
      "doubleSided": false,
      "emissiveFactor": [
        0,
        0,
        0
      ],
      "name": "MeguminHatMat",
      "occlusionTexture": {
        "index": 0,
        "strength": 1,
        "texCoord": 0
      },
      "pbrMetallicRoughness": {
        "baseColorFactor": [
          1,
          1,
          1,
          1
        ],
        "baseColorTexture": {
          "index": 1,
          "texCoord": 0
        },
        "metallicFactor": 1,
        "metallicRoughnessTexture": {
          "index": 0,
          "texCoord": 0
        },
        "roughnessFactor": 1
      }
    }
  ],
  "meshes": [
    {
      "name": "Megumin's Hat.001_MeguminHatMat_0",
      "primitives": [
        {
          "attributes": {
            "COLOR_0": 3,
            "NORMAL": 1,
            "POSITION": 0,
            "TANGENT": 2,
            "TEXCOORD_0": 4
          },
          "indices": 5,
          "material": 0,
          "mode": 4
        }
      ]
    }
  ],
  "nodes": [
    {
      "children": [
        1
      ],
      "name": "RootNode (gltf orientation matrix)",
      "rotation": [
        -0.70710678118654746,
        -0,
        -0,
        0.70710678118654757
      ]
    },
    {
      "children": [
        2
      ],
      "name": "RootNode (model correction matrix)"
    },
    {
      "children": [
        3
      ],
      "matrix": [
        1,
        0,
        0,
        0,
        0,
        0,
        1,
        0,
        0,
        -1,
        0,
        0,
        0,
        0,
        0,
        1
      ],
      "name": "86ad639c1b254025a5de9d8a5643df23.fbx"
    },
    {
      "children": [
        4
      ],
      "name": "RootNode"
    },
    {
      "children": [
        5
      ],
      "matrix": [
        100,
        0,
        0,
        0,
        0,
        -1.6292067939183141e-05,
        -99.999999999998678,
        0,
        0,
        99.999999999998678,
        -1.6292067939183141e-05,
        0,
        0,
        0,
        0,
        1
      ],
      "name": "Megumin's Hat.001"
    },
    {
      "mesh": 0,
      "name": "Megumin's Hat.001_MeguminHatMat_0"
    }
  ],
  "samplers": [
    {
      "magFilter": 9729,
      "minFilter": 9987,
      "wrapS": 10497,
      "wrapT": 10497
    }
  ],
  "scene": 0,
  "scenes": [
    {
      "name": "OSG_Scene",
      "nodes": [
        0
      ]
    }
  ],
  "textures": [
    {
      "sampler": 0,
      "source": 0
    },
    {
      "sampler": 0,
      "source": 1
    }
  ]
}

